<svg xmlns="http://www.w3.org/2000/svg" width="1098.535" height="558.799" viewBox="0 0 290.654 147.849"><path d="M92.325 122.944l-14.03 14.03H24l-14.03-14.03V94.88h28.063v14.03h26.24V87.956H24L9.96 73.925v-49.02L24 10.875h54.303l14.03 14.03V52.97h-28.06V38.94h-26.24v20.956h40.272l14.03 14.03v49.02zm93.315 14.03h-84.917v-28.063h7.107V38.938h-7.107V10.875h84.917V52.97h-28.06V38.94h-21.867v20.956h27.152V87.96h-27.152v20.956h21.867V94.88h28.063v42.094zm95.055-14.03l-14.03 14.03H194.32V108.91h6.925V38.938h-6.925v-27.88h72.343l14.03 14.03V67l-7.107 6.925 7.107 7.107v41.912zm-28.063-14.03V87.956h-23.325v20.956h23.325zm0-48.836v-21.14h-23.325v21.138h23.325z" fill="#fff"/><path d="M20.117 0L0 20.118v107.614l20.117 20.117h250.42l20.117-20.117V20.118L270.537 0zm1.562 2.952h247.295l18.728 18.728v104.49l-18.728 18.728H21.68L2.952 126.17V21.68z" fill="#fff" paint-order="stroke markers fill"/></svg>